<?xml version="1.0" encoding="utf-8"?>
<!-- Generator: Adobe Illustrator 15.1.0, SVG Export Plug-In . SVG Version: 6.00 Build 0)  -->
<!DOCTYPE svg PUBLIC "-//W3C//DTD SVG 1.1//EN" "http://www.w3.org/Graphics/SVG/1.1/DTD/svg11.dtd">
<svg version="1.1" id="Calque_2" xmlns="http://www.w3.org/2000/svg" xmlns:xlink="http://www.w3.org/1999/xlink" x="0px" y="0px"
	 width="670.978px" height="606.106px" viewBox="164.51 -3.054 670.978 606.106"
	 enable-background="new 164.51 -3.054 670.978 606.106" xml:space="preserve">
<path d="M822.696,461.519L581.713,44.125c-17.057-29.542-47.604-47.179-81.714-47.179c-34.113,0-64.662,17.638-81.715,47.179
	l-240.979,417.39c-17.06,29.541-17.06,64.815-0.001,94.36c17.057,29.541,47.604,47.177,81.714,47.177h481.969
	c34.112,0,64.658-17.637,81.712-47.178C839.753,526.335,839.752,491.063,822.696,461.519z M792.013,538.16
	c-10.649,18.447-29.726,29.46-51.025,29.46H259.018c-21.303,0-40.376-11.013-51.029-29.462s-10.652-40.477,0-58.923L448.97,61.842
	c10.65-18.449,29.727-29.462,51.029-29.462s40.378,11.016,51.028,29.462l240.983,417.394
	C802.661,497.685,802.663,519.711,792.013,538.16z"/>
<path fill="#FFB000" d="M792.011,479.235L551.027,61.842c-10.65-18.446-29.726-29.462-51.028-29.462S459.62,43.393,448.97,61.842
	l-240.98,417.394c-10.652,18.446-10.652,40.474,0,58.923s29.726,29.462,51.029,29.462h481.969c21.3,0,40.376-11.013,51.025-29.46
	C802.663,519.711,802.661,497.685,792.011,479.235z M500.001,527.167c-24.379,0-44.213-19.833-44.213-44.212
	c0-24.377,19.834-44.21,44.213-44.21c24.38,0,44.213,19.833,44.213,44.21C544.211,507.337,524.377,527.167,500.001,527.167z
	 M544.512,338.178c0,24.543-19.968,44.511-44.511,44.511c-24.542,0-44.51-19.968-44.51-44.511V133.893
	c0-11.644,9.44-21.084,21.083-21.084h46.856c11.646,0,21.083,9.44,21.083,21.084v204.285H544.512z"/>
<path fill="#FFFFFF" d="M500.001,527.167c-24.379,0-44.213-19.833-44.213-44.212c0-24.377,19.834-44.21,44.213-44.21
	c24.38,0,44.213,19.833,44.213,44.21C544.211,507.337,524.377,527.167,500.001,527.167z"/>
<path fill="#FFFFFF" d="M544.512,338.178c0,24.543-19.968,44.511-44.511,44.511c-24.542,0-44.51-19.968-44.51-44.511V133.893
	c0-11.644,9.44-21.084,21.083-21.084h46.856c11.646,0,21.083,9.44,21.083,21.084v204.285H544.512z"/>
</svg>
